<?xml version="1.0" standalone="no"?>
<!DOCTYPE svg PUBLIC "-//W3C//DTD SVG 20010904//EN"
 "http://www.w3.org/TR/2001/REC-SVG-20010904/DTD/svg10.dtd">
<svg version="1.0" xmlns="http://www.w3.org/2000/svg"
 width="700.000000pt" height="700.000000pt" viewBox="0 0 700.000000 700.000000"
 preserveAspectRatio="xMidYMid meet">
<metadata>
Created by potrace 1.14, written by Peter Selinger 2001-2017
</metadata>
<g transform="translate(0.000000,700.000000) scale(0.100000,-0.100000)"
fill="#000000" stroke="none">
<path d="M5645 5578 l0 -253 -87 -3 -88 -3 0 -59 0 -60 61 0 60 0 -3 -52 c-3
-45 -6 -53 -23 -54 -61 -4 -150 -18 -220 -35 -96 -23 -125 -35 -125 -50 0 -6
22 -43 50 -82 27 -39 49 -71 47 -73 -1 -1 -29 -4 -62 -7 -68 -7 -75 -9 -165
-32 -111 -28 -335 -133 -355 -165 -3 -6 -56 -10 -119 -10 -117 0 -138 -6 -150
-46 -10 -34 25 -57 91 -58 l58 -1 27 -135 c15 -74 30 -148 32 -165 3 -16 8
-39 10 -50 11 -54 48 -244 52 -270 14 -81 24 -105 52 -111 72 -16 96 -25 135
-47 57 -34 83 -64 121 -139 l33 -63 91 -3 91 -3 -4 -122 c-2 -67 -7 -192 -10
-277 -3 -85 -7 -216 -10 -290 -5 -138 -10 -282 -20 -615 -4 -104 -8 -226 -10
-270 -2 -44 -7 -182 -10 -307 l-7 -226 474 0 473 -1 -2 42 c-4 118 -16 441
-18 507 -8 223 -17 446 -20 530 -2 52 -7 167 -10 255 -3 88 -8 205 -10 260 -2
55 -7 181 -10 280 -4 99 -8 191 -8 205 -2 25 -1 25 80 28 l82 3 31 64 c50 104
151 179 254 187 31 3 41 19 51 89 4 24 8 46 10 49 2 3 6 26 10 50 3 25 10 61
15 80 5 19 11 49 14 65 19 105 25 137 56 291 l22 111 59 0 c67 0 89 13 89 54
0 41 -24 49 -145 49 -103 0 -106 1 -154 34 -120 82 -297 149 -445 168 -50 6
-93 13 -95 14 -3 3 43 67 72 99 27 29 37 50 29 61 -16 21 -153 57 -272 70 -30
4 -62 8 -70 10 -8 1 -18 3 -22 3 -5 1 -8 23 -8 51 l0 49 62 3 63 3 0 58 1 57
-88 0 -88 0 0 255 c0 197 -3 255 -12 255 -10 0 -13 -57 -13 -252z"/>
<path d="M1930 5804 c-194 -25 -432 -92 -576 -160 -28 -13 -53 -24 -56 -24
-11 0 -198 -110 -269 -157 -149 -101 -293 -228 -401 -355 -29 -34 -58 -68 -65
-75 -6 -7 -36 -48 -66 -91 -149 -210 -254 -440 -316 -688 -31 -123 -33 -134
-54 -299 -16 -131 -13 -395 7 -502 2 -10 7 -38 11 -63 20 -128 71 -302 132
-450 33 -80 129 -269 142 -280 3 -3 12 -17 20 -32 34 -66 184 -252 286 -353
145 -146 345 -299 365 -279 15 15 140 215 140 224 0 4 -39 34 -86 66 -160 108
-303 259 -448 478 -69 103 -116 194 -181 351 -94 225 -135 603 -95 875 100
697 584 1260 1261 1469 80 25 246 58 334 67 246 24 492 -4 740 -83 110 -35
299 -120 365 -165 19 -12 47 -29 63 -37 15 -8 27 -18 27 -23 0 -4 6 -8 13 -8
11 1 151 193 162 223 4 11 -114 97 -134 97 -5 0 -11 4 -13 9 -3 9 -229 119
-288 140 -19 7 -44 17 -55 22 -59 26 -268 79 -368 93 -27 4 -59 10 -70 13 -54
12 -427 11 -527 -3z"/>
<path d="M3400 5303 c-57 -87 -181 -275 -275 -418 -94 -143 -208 -316 -253
-385 -44 -69 -85 -129 -89 -135 -5 -5 -55 -82 -113 -170 -119 -183 -427 -650
-569 -865 -53 -79 -98 -149 -101 -155 -3 -5 -81 -125 -174 -265 -93 -140 -210
-318 -261 -395 -50 -77 -179 -273 -286 -435 -364 -550 -418 -634 -414 -638 3
-4 478 -6 552 -3 17 1 40 28 96 114 41 61 145 220 232 352 87 132 204 310 260
395 89 136 324 492 578 878 l80 122 842 0 841 0 194 -295 c107 -163 238 -361
290 -440 352 -536 320 -491 321 -449 0 22 2 66 4 99 1 33 5 141 9 240 4 99 9
243 12 320 l5 140 -79 120 c-104 159 -342 520 -511 775 -75 113 -138 210 -141
215 -3 6 -59 91 -124 190 -66 99 -181 272 -255 385 -75 113 -137 207 -139 210
-3 8 -386 588 -410 623 l-19 27 -103 -157z m254 -953 c74 -113 140 -212 146
-220 50 -72 290 -443 290 -449 0 -4 -265 -7 -589 -7 -398 1 -587 4 -583 11 3
5 78 120 167 255 89 135 211 322 272 415 140 213 143 219 154 208 4 -4 69
-100 143 -213z"/>
</g>
</svg>
