<?xml version="1.0" encoding="utf-8"?>
<svg id="Camada_1" data-name="Camada 1" viewBox="0 0 1200 1200" version="1.1" width="1200" height="1200" xmlns="http://www.w3.org/2000/svg">
  <defs id="defs145">
    <style id="style143">.cls-1{fill:#1d1d1b;}.cls-2{fill:#f00507;}.cls-3{fill:#f2f2f2;}</style>
  </defs>
  <text style="font-style: normal; font-weight: normal; font-size: 61.8893px; line-height: 125%; font-family: &quot;Bitstream Vera Sans&quot;; letter-spacing: 0px; word-spacing: 0px; fill: rgb(0, 0, 0); fill-opacity: 1; stroke: none; stroke-width: 1.54724px; stroke-linecap: butt; stroke-linejoin: miter; stroke-opacity: 1; white-space: pre;" x="582.186" y="1125.915" id="text5198"><tspan id="tspan5196" x="582.186" y="1180.673" style="stroke-width: 1.54724px; font-size: 42.7px; word-spacing: 0px;"/></text>
  <g transform="matrix(1, 0, 0, 1, 2.027809, 0)">
    <path class="cls-1" d="M 391.853 296.391 C 331.195 295.651 272.733 313.616 222.758 348.348 C 159.044 392.63 116.383 459.078 102.642 535.443 C 88.9 611.809 105.722 688.961 150.006 752.678 C 172.179 784.712 200.607 811.925 233.577 832.679 L 254.794 798.983 C 221.675 778.934 205.062 760.299 182.853 729.844 C 104.02 616.431 132.169 460.014 245.584 381.19 C 331.856 321.231 447.435 321.666 533.188 382.278 L 556.303 349.628 C 508.032 315.521 451.176 297.113 391.853 296.391 Z" id="path5204" style="fill: rgb(255, 205, 0); fill-opacity: 1; stroke-width: 0.69064;"/>
    <path style="color: rgb(0, 0, 0); fill: rgb(214, 0, 28); fill-opacity: 1; fill-rule: evenodd; stroke: none; stroke-width: 1.1623; stroke-opacity: 1;" d="M 601.477 306.334 L 210.667 899.924 L 310.676 899.924 L 601.486 458.222 L 884.343 887.734 L 889.625 743.884 L 601.477 306.334 Z" id="path3227"/>
    <path style="fill: rgb(214, 0, 28); fill-opacity: 1; stroke-width: 1.08853;" id="path149" d="M 1081.691 435.319 L 1058.744 435.319 C 1038.963 416.672 1015.316 405.853 990.747 404.208 L 1004.038 382.295 L 1002.961 381.228 L 1003.406 379.585 C 989.663 373.625 975.362 370.011 960.875 368.836 L 960.875 353.953 L 974.89 353.953 L 974.89 336.454 L 954.934 336.454 L 954.934 262.279 L 952.209 262.279 L 952.209 336.454 L 932.166 336.454 L 932.166 353.953 L 946.175 353.953 L 946.175 368.912 C 931.694 370.117 917.397 373.716 903.644 379.618 L 904.082 381.262 L 902.972 382.278 L 915.393 404.301 C 890.514 406.006 866.545 416.797 846.346 435.387 L 823.426 435.387 C 818.908 435.391 816.089 441.627 818.35 446.611 C 819.398 448.92 821.332 450.343 823.426 450.345 L 834.723 450.345 L 850.971 555.513 L 851.975 555.259 L 851.975 556.868 C 868.356 556.868 882.803 571.852 886.325 592.494 L 887.654 592.13 L 887.654 593.824 L 908.169 593.824 L 899.922 900 L 1008.098 900 L 998.947 593.798 L 1017.462 593.798 L 1017.462 592.053 L 1018.791 592.426 C 1022.313 571.784 1036.734 556.8 1053.141 556.8 L 1053.141 555.191 L 1054.145 555.445 L 1070.393 450.278 L 1081.691 450.278 C 1086.208 450.271 1089.025 444.034 1086.762 439.051 C 1085.714 436.744 1083.782 435.322 1081.691 435.319 Z" class="cls-2"/>
  </g>
</svg>