<?xml version="1.0" encoding="UTF-8" standalone="no"?>
<svg
   xmlns:dc="http://purl.org/dc/elements/1.1/"
   xmlns:cc="http://creativecommons.org/ns#"
   xmlns:rdf="http://www.w3.org/1999/02/22-rdf-syntax-ns#"
   xmlns:svg="http://www.w3.org/2000/svg"
   xmlns="http://www.w3.org/2000/svg"
   xmlns:sodipodi="http://sodipodi.sourceforge.net/DTD/sodipodi-0.dtd"
   xmlns:inkscape="http://www.inkscape.org/namespaces/inkscape"
   id="Camada_1"
   data-name="Camada 1"
   viewBox="0 0 1221.8185 1142.6908"
   version="1.1"
   sodipodi:docname="calgaryailogo.svg"
   inkscape:version="0.92.5 (2060ec1f9f, 2020-04-08)"
   width="1221.8185"
   height="1142.6908">
  <metadata
     id="metadata173">
    <rdf:RDF>
      <cc:Work
         rdf:about="">
        <dc:format>image/svg+xml</dc:format>
        <dc:type
           rdf:resource="http://purl.org/dc/dcmitype/StillImage" />
        <dc:title></dc:title>
      </cc:Work>
    </rdf:RDF>
  </metadata>
  <sodipodi:namedview
     pagecolor="#ffffff"
     bordercolor="#666666"
     borderopacity="1"
     objecttolerance="10"
     gridtolerance="10"
     guidetolerance="10"
     inkscape:pageopacity="0"
     inkscape:pageshadow="2"
     inkscape:window-width="1720"
     inkscape:window-height="1376"
     id="namedview171"
     showgrid="false"
     inkscape:zoom="0.74174725"
     inkscape:cx="556.91433"
     inkscape:cy="552.63389"
     inkscape:window-x="0"
     inkscape:window-y="27"
     inkscape:window-maximized="0"
     inkscape:current-layer="Camada_1"
     showguides="true"
     fit-margin-top="0"
     fit-margin-left="0"
     fit-margin-right="0"
     fit-margin-bottom="0"
     inkscape:guide-bbox="true">
    <sodipodi:guide
       position="466.46618,324.90852"
       orientation="0,1"
       id="guide5229"
       inkscape:locked="false" />
  </sodipodi:namedview>
  <defs
     id="defs145">
    <style
       id="style143">.cls-1{fill:#1d1d1b;}.cls-2{fill:#f00507;}.cls-3{fill:#f2f2f2;}</style>
  </defs>
  <text
     xml:space="preserve"
     style="font-style:normal;font-weight:normal;font-size:40px;line-height:125%;font-family:'Bitstream Vera Sans';letter-spacing:0px;word-spacing:0px;fill:#000000;fill-opacity:1;stroke:none;stroke-width:1px;stroke-linecap:butt;stroke-linejoin:miter;stroke-opacity:1"
     x="439.93369"
     y="893.9668"
     id="text5198"><tspan
       sodipodi:role="line"
       id="tspan5196"
       x="439.93369"
       y="929.35742" /></text>
  <path
     class="cls-1"
     d="m 67.757475,2604.3681 76.999995,-32.69 0.08,0.1 c 1.14,-0.9 114.71,-89.66 209.6,-71.43 60.18,11.58 127.68,-10.69 200.6,-66.16 20.04034,-15.341 39.11336,-31.9059 57.11,-49.6 l 320.00001,374.5599 63.88,-54.5699 -603.11001,-706 -285,435.75 -66.853705,101.0097 z m 334.079995,-465.96 155.63,182.17 c -43.11,42.93 -125.16,109.19 -187.13,97.26 -58.45,-11.24 -118,3.53 -167,24 z"
     id="path4745"
     inkscape:connector-curvature="0"
     style="fill:#c8c8c8;fill-opacity:1"
     sodipodi:nodetypes="ccccccccccccccccc" />
  <path
     style="fill:none;fill-rule:evenodd;stroke:#c8c8c8;stroke-width:80;stroke-linecap:butt;stroke-linejoin:miter;stroke-opacity:1;stroke-miterlimit:4;stroke-dasharray:none"
     d="M 2.6963363,817.78228 H 156.3875"
     id="path5231"
     inkscape:connector-curvature="0" />
  <path
     style="fill:none;fill-rule:evenodd;stroke:#c8c8c8;stroke-width:80;stroke-linecap:butt;stroke-linejoin:miter;stroke-opacity:1;stroke-miterlimit:4;stroke-dasharray:none"
     d="M 754.97415,817.78228 H 1222.7885"
     id="path5233"
     inkscape:connector-curvature="0" />
  <path
     style="fill:none;fill-rule:evenodd;stroke:#6d6e71;stroke-width:80;stroke-linecap:butt;stroke-linejoin:miter;stroke-miterlimit:4;stroke-dasharray:none;stroke-opacity:1"
     d="M 129.42414,893.2797 469.16251,374.23496 953.15488,1121.1202"
     id="path5217"
     inkscape:connector-curvature="0"
     sodipodi:nodetypes="ccc" />
  <path
     class="cls-1"
     d="M 585.9515,12.480093 C 458.61283,17.472775 337.89785,61.47297 236.7997,139.73398 107.90645,239.51139 25.573277,383.52384 4.9849986,545.22065 -15.603282,706.91747 28.014757,866.96683 127.79828,995.8679 c 49.97498,64.8131 112.55288,118.8389 183.96369,158.8229 l 40.87764,-72.984 C 280.99292,1043.2171 244.12654,1005.9146 194.24731,944.41654 16.615473,714.983 58.793094,383.78322 288.23097,206.1733 462.75875,71.06978 705.29065,59.50947 891.74063,177.41955 L 936.7131,106.42538 C 831.759,40.078384 710.48947,7.594142 585.9515,12.480093 Z"
     id="path5204"
     inkscape:connector-curvature="0"
     style="fill:#ffcd00;fill-opacity:1"
     sodipodi:nodetypes="cssccccsccc" />
  <path
     style="fill:#d6001c;fill-opacity:1"
     inkscape:connector-curvature="0"
     id="path149"
     d="m 1177.936,593.27697 h -34.53 a 188.72,188.72 0 0 0 -102.32,-36.73 l 20,-25.87 -1.62,-1.26 0.67,-1.94 a 247.49,247.49 0 0 0 -63.99997,-12.69 v -17.57 h 21.08997 v -20.66 h -30.02997 v -87.57 h -4.1 v 87.57 h -30.16002 v 20.66 h 21.08002 v 17.66 a 252,252 0 0 0 -64.00002,12.64 l 0.66,1.94 -1.67,1.2 18.69,26 a 195.4,195.4 0 0 0 -103.89998,36.7 h -34.49 a 8.83,8.83 0 0 0 0,17.66 h 17 l 24.45,124.16 1.51,-0.3 v 1.9 c 24.65,0 46.39,17.69 51.69,42.06 l 2,-0.43 v 2 h 30.86998 l -12.41,361.47013 H 1067.196 l -13.77,-361.50013 h 27.86 v -2.06 l 2,0.44 c 5.3,-24.37 27,-42.06 51.69,-42.06 v -1.9 l 1.51,0.3 24.45,-124.16 h 17 a 8.83,8.83 0 0 0 0,-17.66 z"
     class="cls-2" />
</svg>
