<?xml version="1.0" encoding="utf-8"?>
<svg id="Camada_1" data-name="Camada 1" viewBox="0 0 1200 1103.92" xmlns="http://www.w3.org/2000/svg">
  <defs>
    <style>.cls-1{fill:#f2f2f2;}.cls-2{fill:#f00507;}</style>
  </defs>
  <path class="cls-1" d="M 970.14 129 C 866.39 55 744 15.9 616.15 15.9 C 453.15 15.9 299.89 79.38 184.63 194.64 C 69.37 309.9 5.89 463.16 5.89 626.17 C 5.734 708.013 22.147 789.04 54.14 864.37 L 131.14 831.68 L 131.22 831.78 C 132.36 830.88 245.93 742.12 340.82 760.35 C 401 771.93 468.5 749.66 541.42 694.19 C 561.46 678.849 580.533 662.284 598.53 644.59 L 918.53 1019.15 L 982.41 964.58 L 379.3 258.58 L 94.3 694.33 C 91.384 671.724 89.925 648.953 89.93 626.16 C 89.91 336 326 99.92 616.15 99.92 C 836.86 99.92 1035.72 239.24 1110.98 446.61 L 1190 418 C 1147.62 301.29 1071.61 201.37 970.14 129 Z M 388.22 398.41 L 543.85 580.58 C 500.74 623.51 418.69 689.77 356.72 677.84 C 298.27 666.6 238.72 681.37 189.72 701.84 Z"/>
  <path class="cls-2" d="M 1111.74 530.4 L 1077.21 530.4 C 1047.444 508.385 1011.861 495.612 974.89 493.67 L 994.89 467.8 L 993.27 466.54 L 993.94 464.6 C 973.26 457.564 951.74 453.297 929.94 451.91 L 929.94 434.34 L 951.03 434.34 L 951.03 413.68 L 921 413.68 L 921 326.11 L 916.9 326.11 L 916.9 413.68 L 886.74 413.68 L 886.74 434.34 L 907.82 434.34 L 907.82 452 C 886.029 453.423 864.516 457.671 843.82 464.64 L 844.48 466.58 L 842.81 467.78 L 861.5 493.78 C 824.063 495.792 787.995 508.532 757.6 530.48 L 723.11 530.48 C 716.313 530.48 712.064 537.838 715.463 543.725 C 717.04 546.457 719.955 548.14 723.11 548.14 L 740.11 548.14 L 764.56 672.3 L 766.07 672 L 766.07 673.9 C 790.72 673.9 812.46 691.59 817.76 715.96 L 819.76 715.53 L 819.76 717.53 L 850.63 717.53 L 838.22 1079 L 1001 1079 L 987.23 717.5 L 1015.09 717.5 L 1015.09 715.44 L 1017.09 715.88 C 1022.39 691.51 1044.09 673.82 1068.78 673.82 L 1068.78 671.92 L 1070.29 672.22 L 1094.74 548.06 L 1111.74 548.06 C 1118.537 548.06 1122.786 540.702 1119.387 534.815 C 1117.81 532.083 1114.895 530.4 1111.74 530.4 Z"/>
  <path d="M 138.29 1079 L 103.94 1079 C 89.18 1079 81.803 1069.163 81.81 1049.49 L 81.81 926.8 C 81.81 906.973 89.187 897.057 103.94 897.05 L 138.29 897.05 L 138.29 922.19 L 114.08 922.19 C 110.08 922.19 108.08 925.033 108.08 930.72 L 108.08 1045.54 C 108.08 1051.233 110.08 1054.077 114.08 1054.07 L 138.29 1054.07 Z" style="fill: rgb(240, 5, 7);"/>
  <path d="M 222.91 1079 L 195.25 1079 L 191.09 1011.67 L 175.65 1011.67 L 171.73 1079 L 143.6 1079 L 158.82 906.53 C 159.28 900.23 162.353 897.077 168.04 897.07 L 197.78 897.07 C 203.62 897.07 206.927 900.223 207.7 906.53 Z M 182.8 922.19 C 181.56 922.19 180.95 922.73 180.95 923.8 L 177 987.44 L 189.68 987.44 L 186 923.8 C 186 922.73 185.39 922.19 184.16 922.19 Z" style="fill: rgb(240, 5, 7);"/>
  <path d="M 281.48 1079 L 240.48 1079 C 233.56 1079 230.1 1075.463 230.1 1068.39 L 230.1 897.05 L 256.39 897.05 L 256.39 1051.54 C 256.39 1053.23 257.16 1054.07 258.69 1054.07 L 281.52 1054.07 Z" style="fill: rgb(240, 5, 7);"/>
  <path d="M 357.11 1068.37 C 357.11 1075.443 353.42 1078.98 346.04 1078.98 L 309.15 1078.98 C 294.383 1078.993 287 1069.157 287 1049.47 L 287 926.8 C 287 906.973 294.377 897.057 309.13 897.05 L 342.33 897.05 L 342.33 922.19 L 319.29 922.19 C 315.29 922.19 313.29 925.033 313.29 930.72 L 313.29 1045.54 C 313.29 1051.233 315.29 1054.077 319.29 1054.07 L 329.21 1054.07 C 330.689 1054.285 331.959 1053.019 331.75 1051.54 L 331.75 986.29 L 357.11 986.29 Z" style="fill: rgb(240, 5, 7);"/>
  <path d="M 443.11 1079 L 415.44 1079 L 411.29 1011.67 L 395.84 1011.67 L 391.92 1079 L 363.79 1079 L 379 906.51 C 379.46 900.21 382.533 897.057 388.22 897.05 L 418 897.05 C 423.84 897.05 427.143 900.203 427.91 906.51 Z M 403 922.19 C 401.77 922.19 401.16 922.73 401.16 923.8 L 397.24 987.44 L 409.92 987.44 L 406.23 923.8 C 406.23 922.73 405.61 922.19 404.38 922.19 Z" style="fill: rgb(240, 5, 7);"/>
  <path d="M 521.74 1072.29 C 521.663 1074.556 521.974 1076.819 522.66 1078.98 L 496.14 1078.98 C 495.443 1077.3 495.129 1075.486 495.22 1073.67 L 495.22 1012.34 C 495.22 1006.96 492.913 1004.27 488.3 1004.27 L 476.54 1004.27 L 476.54 1079 L 450.26 1079 L 450.26 907.66 C 450.26 900.593 453.717 897.057 460.63 897.05 L 498.68 897.05 C 513.593 897.05 521.047 906.967 521.04 926.8 L 521.04 972.22 C 521.04 982.22 517.583 989.06 510.67 992.74 C 518.05 996.427 521.74 1003.65 521.74 1014.41 Z M 488.3 979.83 C 492.76 979.83 494.99 977.14 494.99 971.76 L 494.99 930.76 C 494.99 925.067 493.067 922.223 489.22 922.23 L 478.85 922.23 C 477.31 922.23 476.54 923.07 476.54 924.76 L 476.54 979.87 Z" style="fill: rgb(240, 5, 7);"/>
  <path d="M 578.46 1079 L 551.71 1079 L 551.71 1008.67 C 543.41 1008.67 537.607 1006.52 534.3 1002.22 C 530.993 997.92 529.343 991.387 529.35 982.62 L 529.35 897.05 L 555.63 897.05 L 555.63 977.76 C 555.63 982.98 557.397 985.59 560.93 985.59 L 569.23 985.59 C 572.61 985.59 574.303 982.98 574.31 977.76 L 574.31 897.05 L 600.82 897.05 L 600.82 982.6 C 600.82 991.36 599.13 997.893 595.75 1002.2 C 592.37 1006.507 586.607 1008.657 578.46 1008.65 Z" style="fill: rgb(240, 5, 7);"/>
  <path class="cls-2" d="M 744.92 1079 L 717.25 1079 L 713.1 1011.67 L 697.65 1011.67 L 693.73 1079 L 665.6 1079 L 680.82 906.53 C 681.28 900.23 684.353 897.077 690.04 897.07 L 719.79 897.07 C 725.63 897.07 728.933 900.223 729.7 906.53 Z M 704.8 922.19 C 703.57 922.19 702.95 922.73 702.95 923.8 L 699 987.44 L 711.68 987.44 L 708 923.8 C 708 922.73 707.38 922.19 706.15 922.19 Z"/>
  <path class="cls-2" d="M 778.35 1079 L 752.07 1079 L 752.07 897.05 L 778.35 897.05 Z"/>
</svg>