<?xml version="1.0" encoding="utf-8"?>
<svg id="Camada_1" data-name="Camada 1" viewBox="0 0 1200 1103.92" xmlns="http://www.w3.org/2000/svg">
  <defs>
    <style>.cls-1{fill:#1d1d1b;}.cls-2{fill:#f00507;}.cls-3{fill:#f2f2f2;}</style>
  </defs>
  <g id="OPÇÃO_A" data-name="OPÇÃO A">
    <path class="cls-1" d="M970.14,129C866.39,55,744,15.9,616.15,15.9c-163,0-316.26,63.48-431.52,178.74S5.89,463.16,5.89,626.17a606.39,606.39,0,0,0,48.25,238.2l77-32.69.08.1c1.14-.9,114.71-89.66,209.6-71.43C401,771.93,468.5,749.66,541.42,694.19a612.52,612.52,0,0,0,57.11-49.6l320,374.56,63.88-54.57-603.11-706-285,435.75a532,532,0,0,1-4.37-68.17C89.91,336,326,99.92,616.15,99.92c220.71,0,419.57,139.32,494.83,346.69L1190,418C1147.62,301.29,1071.61,201.37,970.14,129ZM388.22,398.41,543.85,580.58c-43.11,42.93-125.16,109.19-187.13,97.26-58.45-11.24-118,3.53-167,24Z"/>
    <path class="cls-2" d="M1111.74,530.4h-34.53a188.72,188.72,0,0,0-102.32-36.73l20-25.87-1.62-1.26.67-1.94a247.49,247.49,0,0,0-64-12.69V434.34h21.09V413.68H921V326.11h-4.1v87.57H886.74v20.66h21.08V452a252,252,0,0,0-64,12.64l.66,1.94-1.67,1.2,18.69,26a195.4,195.4,0,0,0-103.9,36.7H723.11a8.83,8.83,0,0,0,0,17.66h17l24.45,124.16,1.51-.3v1.9c24.65,0,46.39,17.69,51.69,42.06l2-.43v2h30.87L838.22,1079H1001L987.23,717.5h27.86v-2.06l2,.44c5.3-24.37,27-42.06,51.69-42.06v-1.9l1.51.3,24.45-124.16h17a8.83,8.83,0,0,0,0-17.66Z"/>
    <path class="cls-3" d="M138.29,1079H103.94q-22.14,0-22.13-29.51V926.8q0-29.74,22.13-29.75h34.35v25.14H114.08q-6,0-6,8.53v114.82q0,8.54,6,8.53h24.21Z"/>
    <path class="cls-3" d="M222.91,1079H195.25l-4.16-67.33H175.65L171.73,1079H143.6l15.22-172.47q.69-9.45,9.22-9.46h29.74q8.76,0,9.92,9.46ZM182.8,922.19c-1.24,0-1.85.54-1.85,1.61L177,987.44h12.68L186,923.8c0-1.07-.61-1.61-1.84-1.61Z"/>
    <path class="cls-3" d="M281.48,1079h-41q-10.38,0-10.38-10.61V897.05h26.29v154.49c0,1.69.77,2.53,2.3,2.53h22.83Z"/>
    <path class="cls-3" d="M357.11,1068.37q0,10.61-11.07,10.61H309.15Q287,1079,287,1049.47V926.8q0-29.74,22.13-29.75h33.2v25.14H319.29q-6,0-6,8.53v114.82q0,8.54,6,8.53h9.92a2.24,2.24,0,0,0,2.54-2.53V986.29h25.36Z"/>
    <path class="cls-3" d="M443.11,1079H415.44l-4.15-67.33H395.84L391.92,1079H363.79L379,906.51q.69-9.45,9.22-9.46H418q8.76,0,9.91,9.46ZM403,922.19c-1.23,0-1.84.54-1.84,1.61l-3.92,63.64h12.68l-3.69-63.64c0-1.07-.62-1.61-1.85-1.61Z"/>
    <path class="cls-3" d="M521.74,1072.29a19.87,19.87,0,0,0,.92,6.69H496.14a12.26,12.26,0,0,1-.92-5.31v-61.33q0-8.07-6.92-8.07H476.54V1079H450.26V907.66q0-10.6,10.37-10.61h38.05q22.37,0,22.36,29.75v45.42q0,15-10.37,20.52,11.07,5.53,11.07,21.67ZM488.3,979.83q6.69,0,6.69-8.07v-41q0-8.54-5.77-8.53H478.85c-1.54,0-2.31.84-2.31,2.53v55.11Z"/>
    <path class="cls-3" d="M578.46,1079H551.71v-70.33q-12.45,0-17.41-6.45t-4.95-19.6V897.05h26.28v80.71q0,7.83,5.3,7.83h8.3q5.07,0,5.08-7.83V897.05h26.51V982.6q0,13.14-5.07,19.6t-17.29,6.45Z"/>
    <path class="cls-2" d="M744.92,1079H717.25l-4.15-67.33H697.65L693.73,1079H665.6l15.22-172.47q.69-9.45,9.22-9.46h29.75q8.76,0,9.91,9.46ZM704.8,922.19c-1.23,0-1.85.54-1.85,1.61L699,987.44h12.68L708,923.8c0-1.07-.62-1.61-1.85-1.61Z"/>
    <path class="cls-2" d="M778.35,1079H752.07V897.05h26.28Z"/>
  </g>
</svg>