<?xml version="1.0" encoding="UTF-8" standalone="no"?>
<svg
   id="Camada_1"
   data-name="Camada 1"
   viewBox="0 0 1200 1200"
   version="1.1"
   sodipodi:docname="calgaryailogo_square.svg"
   inkscape:version="1.1.2 (b8e25be8, 2022-02-05)"
   width="1200"
   height="1200"
   inkscape:export-filename="/Users/yani/workspace/calgaryai.github.io/assets/img/calgaryailogo-og.png"
   inkscape:export-xdpi="96"
   inkscape:export-ydpi="96"
   xmlns:inkscape="http://www.inkscape.org/namespaces/inkscape"
   xmlns:sodipodi="http://sodipodi.sourceforge.net/DTD/sodipodi-0.dtd"
   xmlns="http://www.w3.org/2000/svg"
   xmlns:svg="http://www.w3.org/2000/svg"
   xmlns:rdf="http://www.w3.org/1999/02/22-rdf-syntax-ns#"
   xmlns:cc="http://creativecommons.org/ns#"
   xmlns:dc="http://purl.org/dc/elements/1.1/">
  <metadata
     id="metadata173">
    <rdf:RDF>
      <cc:Work
         rdf:about="">
        <dc:format>image/svg+xml</dc:format>
        <dc:type
           rdf:resource="http://purl.org/dc/dcmitype/StillImage" />
      </cc:Work>
    </rdf:RDF>
  </metadata>
  <sodipodi:namedview
     pagecolor="#ffffff"
     bordercolor="#666666"
     borderopacity="1"
     objecttolerance="10"
     gridtolerance="10"
     guidetolerance="10"
     inkscape:pageopacity="0"
     inkscape:pageshadow="2"
     inkscape:window-width="3440"
     inkscape:window-height="1387"
     id="namedview171"
     showgrid="false"
     inkscape:zoom="0.76734265"
     inkscape:cx="349.90887"
     inkscape:cy="524.53751"
     inkscape:window-x="0"
     inkscape:window-y="25"
     inkscape:window-maximized="1"
     inkscape:current-layer="Camada_1"
     showguides="true"
     fit-margin-top="0"
     fit-margin-left="0"
     fit-margin-right="0"
     fit-margin-bottom="0"
     inkscape:guide-bbox="true"
     inkscape:pagecheckerboard="0">
    <sodipodi:guide
       position="583.83305,599.22536"
       orientation="0,-1"
       id="guide1006" />
    <sodipodi:guide
       position="600.77464,1065.7705"
       orientation="1,0"
       id="guide1008" />
  </sodipodi:namedview>
  <defs
     id="defs145">
    <style
       id="style143">.cls-1{fill:#1d1d1b;}.cls-2{fill:#f00507;}.cls-3{fill:#f2f2f2;}</style>
  </defs>
  <g
     id="g956"
     transform="matrix(0.79887717,0,0,0.79887717,19.67888,200.34974)">
    <text
       xml:space="preserve"
       style="font-style:normal;font-weight:normal;font-size:52.1347px;line-height:125%;font-family:'Bitstream Vera Sans';letter-spacing:0px;word-spacing:0px;fill:#000000;fill-opacity:1;stroke:none;stroke-width:1.30337px;stroke-linecap:butt;stroke-linejoin:miter;stroke-opacity:1"
       x="589.29053"
       y="982.81573"
       id="text5198"><tspan
         sodipodi:role="line"
         id="tspan5196"
         x="589.29053"
         y="982.81573"
         style="stroke-width:1.30337px" /></text>
    <path
       class="cls-1"
       d="M 451.3563,2.128919 C 358.19572,0.992012 268.40635,28.584227 191.65305,81.927806 93.797811,149.93719 28.275978,251.9922 7.1715111,369.27781 -13.932985,486.56342 11.902997,605.05743 79.916541,702.91862 c 34.053889,49.19852 77.714629,90.99416 128.351849,122.8692 l 32.58666,-51.75233 C 189.9895,743.24266 164.47336,714.62264 130.36483,667.84813 9.2878041,493.66223 52.520863,253.42911 226.70916,132.36827 359.20994,40.280226 536.72257,40.947966 668.42619,134.03909 L 703.92783,83.893446 C 629.78995,31.510365 542.46804,3.238553 451.3563,2.128919 Z"
       id="path5204"
       inkscape:connector-curvature="0"
       style="fill:#ffcd00;fill-opacity:1;stroke-width:0.73109"
       sodipodi:nodetypes="cssccccsccc" />
    <path
       id="path3227"
       style="color:#000000;fill:#d6001c;fill-opacity:1;fill-rule:evenodd;stroke:none;stroke-opacity:1;-inkscape-stroke:none"
       d="M 727.37891,79.458984 158.98242,942.7793 283.87109,942.7051 727.39062,269.05666 1080.4746,805.20705 1087.0684,625.6426 Z" />
    <path
       style="fill:#d6001c;fill-opacity:1;stroke-width:1.25125"
       inkscape:connector-curvature="0"
       id="path149"
       d="m 1430.5902,255.61866 h -43.2059 a 236.13666,236.13666 0 0 0 -128.0282,-45.95855 l 25.025,-32.36995 -2.027,-1.57657 0.8383,-2.42745 a 309.67283,309.67283 0 0 0 -80.0802,-15.87841 V 135.4232 h 26.3889 v -25.85089 h -37.5752 V 0 h -5.13 v 109.57231 h -37.7378 v 25.85089 h 26.3764 v 22.09715 a 315.316,315.316 0 0 0 -80.0803,15.81583 l 0.8259,2.42745 -2.0897,1.50151 23.386,32.53261 a 244.49504,244.49504 0 0 0 -130.0053,45.92099 h -43.15574 a 11.048575,11.048575 0 0 0 0,22.09715 h 21.27133 l 30.59311,155.35569 1.8894,-0.37537 v 2.37739 c 30.8434,0 58.0457,22.13468 64.6774,52.62776 l 2.5024,-0.53805 v 2.50249 h 38.6263 l -15.5282,452.29115 h 203.6792 l -17.2298,-452.32868 h 34.86 v -2.57759 l 2.5025,0.55057 c 6.6316,-30.49305 33.7838,-52.62775 64.6773,-52.62775 v -2.37738 l 1.8894,0.37538 30.5932,-155.3557 h 21.2713 a 11.048573,11.048573 0 0 0 0,-22.09714 z"
       class="cls-2" />
    <path
       style="fill:#d6001c;fill-opacity:1;stroke:#d6001c;stroke-width:80;stroke-linecap:butt;stroke-linejoin:miter;stroke-miterlimit:4;stroke-dasharray:none;stroke-opacity:1"
       d="M 484.94629,502.89055 H 967.50947"
       id="path1101" />
  </g>
</svg>
