<?xml version="1.0" encoding="UTF-8" standalone="no"?>
<svg
   id="Camada_1"
   data-name="Camada 1"
   viewBox="0 0 1221.8185 1142.6908"
   version="1.1"
   sodipodi:docname="calgaryailogo_alt4.svg"
   inkscape:version="1.1.2 (b8e25be833, 2022-02-05)"
   width="1221.8185"
   height="1142.6908"
   xmlns:inkscape="http://www.inkscape.org/namespaces/inkscape"
   xmlns:sodipodi="http://sodipodi.sourceforge.net/DTD/sodipodi-0.dtd"
   xmlns="http://www.w3.org/2000/svg"
   xmlns:svg="http://www.w3.org/2000/svg"
   xmlns:rdf="http://www.w3.org/1999/02/22-rdf-syntax-ns#"
   xmlns:cc="http://creativecommons.org/ns#"
   xmlns:dc="http://purl.org/dc/elements/1.1/">
  <metadata
     id="metadata173">
    <rdf:RDF>
      <cc:Work
         rdf:about="">
        <dc:format>image/svg+xml</dc:format>
        <dc:type
           rdf:resource="http://purl.org/dc/dcmitype/StillImage" />
        <dc:title />
      </cc:Work>
    </rdf:RDF>
  </metadata>
  <sodipodi:namedview
     pagecolor="#ffffff"
     bordercolor="#666666"
     borderopacity="1"
     objecttolerance="10"
     gridtolerance="10"
     guidetolerance="10"
     inkscape:pageopacity="0"
     inkscape:pageshadow="2"
     inkscape:window-width="1720"
     inkscape:window-height="1376"
     id="namedview171"
     showgrid="false"
     inkscape:zoom="1.2335543"
     inkscape:cx="611.64715"
     inkscape:cy="648.1271"
     inkscape:window-x="0"
     inkscape:window-y="27"
     inkscape:window-maximized="0"
     inkscape:current-layer="Camada_1"
     showguides="true"
     fit-margin-top="0"
     fit-margin-left="0"
     fit-margin-right="0"
     fit-margin-bottom="0"
     inkscape:guide-bbox="true"
     inkscape:pagecheckerboard="0">
    <sodipodi:guide
       position="413.88762,364.0054"
       orientation="0,1"
       inkscape:locked="false"
       id="guide5229" />
    <sodipodi:guide
       position="304.686,868.22028"
       orientation="1,0"
       id="guide5370"
       inkscape:locked="false" />
    <sodipodi:guide
       position="533.87459,825.0789"
       orientation="1,0"
       id="guide5372"
       inkscape:locked="false" />
    <sodipodi:guide
       position="769.80401,825.0789"
       orientation="1,0"
       id="guide5374"
       inkscape:locked="false" />
    <sodipodi:guide
       position="556.79344,106.50528"
       orientation="0,1"
       id="guide5383"
       inkscape:locked="false" />
  </sodipodi:namedview>
  <defs
     id="defs145">
    <style
       id="style143">.cls-1{fill:#1d1d1b;}.cls-2{fill:#f00507;}.cls-3{fill:#f2f2f2;}</style>
  </defs>
  <text
     id="text5198"
     y="1196.1108"
     x="495.8403"
     style="font-style:normal;font-weight:normal;font-size:55.3732px;line-height:125%;font-family:'Bitstream Vera Sans';letter-spacing:0px;word-spacing:0px;fill:#000000;fill-opacity:1;stroke:none;stroke-width:1.38433px;stroke-linecap:butt;stroke-linejoin:miter;stroke-opacity:1"
     xml:space="preserve"><tspan
       y="1196.1108"
       x="495.8403"
       id="tspan5196"
       sodipodi:role="line"
       style="stroke-width:1.38433px" /></text>
  <path
     sodipodi:nodetypes="cssccccsccc"
     style="fill:#ffcd00;fill-opacity:1;stroke-width:0.557484"
     inkscape:connector-curvature="0"
     id="path5204"
     d="M 367.71275,218.08279 C 296.67024,217.6688 228.33802,239.14497 170.07128,280.19376 95.785138,332.52813 46.319454,410.66584 30.797022,500.2013 c -15.522462,89.53545 4.754125,179.76414 57.091699,254.05478 26.206029,37.3494 59.701499,69.00723 98.468429,93.06647 L 210.9536,807.70184 C 172.01781,784.46892 152.42206,762.76958 126.18616,727.2688 33.015454,595.03686 64.813685,411.64366 197.04755,318.48529 297.63461,247.62198 432.99512,247.26817 533.87459,317.6119 l 26.827,-38.40975 C 503.91516,239.61933 437.19284,218.48598 367.71275,218.08279 Z"
     class="cls-1" />
  <path
     sodipodi:nodetypes="ccccccc"
     inkscape:connector-curvature="0"
     id="path5217"
     d="M 624.96416,234.10095 99.913323,1036.5232 232.39915,1036.1855 623.07423,439.21174 999.5152,1036.1855 l 129.6261,0.108 z"
     style="color:#000000;font-style:normal;font-variant:normal;font-weight:normal;font-stretch:normal;font-size:medium;line-height:normal;font-family:sans-serif;font-variant-ligatures:normal;font-variant-position:normal;font-variant-caps:normal;font-variant-numeric:normal;font-variant-alternates:normal;font-feature-settings:normal;text-indent:0;text-align:start;text-decoration:none;text-decoration-line:none;text-decoration-style:solid;text-decoration-color:#000000;letter-spacing:normal;word-spacing:normal;text-transform:none;writing-mode:lr-tb;direction:ltr;text-orientation:mixed;dominant-baseline:auto;baseline-shift:baseline;text-anchor:start;white-space:normal;shape-padding:0;clip-rule:nonzero;display:inline;overflow:visible;visibility:visible;isolation:auto;mix-blend-mode:normal;color-interpolation:sRGB;color-interpolation-filters:linearRGB;solid-color:#000000;solid-opacity:1;vector-effect:none;fill:#6d6e71;fill-opacity:1;fill-rule:evenodd;stroke:none;stroke-width:110.746;stroke-linecap:butt;stroke-linejoin:miter;stroke-miterlimit:4;stroke-dasharray:none;stroke-dashoffset:0;stroke-opacity:1;color-rendering:auto;image-rendering:auto;shape-rendering:auto;text-rendering:auto;enable-background:accumulate" />
  <path
     class="cls-2"
     d="m 542.70876,515.44731 h -32.84409 a 179.50643,179.50643 0 0 0 -97.32461,-34.93679 l 19.02357,-24.60697 -1.54076,-1.19848 0.63724,-1.8453 A 235.4072,235.4072 0 0 0 369.7847,440.7893 v -16.71219 h 20.0603 v -19.65135 h -28.56384 v -83.29472 h -3.89983 v 83.29472 h -28.68758 v 19.65135 h 20.05086 v 16.79781 a 239.69703,239.69703 0 0 0 -60.87545,12.02289 l 0.62778,1.84531 -1.58847,1.1414 17.77753,24.73064 a 185.86032,185.86032 0 0 0 -98.82744,34.90825 h -32.80617 a 8.3989114,8.3989114 0 0 0 0,16.79782 h 16.17006 l 23.2563,118.09834 1.4363,-0.28535 v 1.80724 c 23.44654,0 44.12517,16.82636 49.16641,40.00657 l 1.90237,-0.409 v 1.90236 h 29.36286 L 282.54256,1037.264 H 437.37545 L 424.2776,693.41284 h 26.49986 v -1.95941 l 1.90233,0.41852 c 5.04132,-23.18023 25.68183,-40.00658 49.16632,-40.00658 v -1.80723 l 1.43644,0.28534 23.25627,-118.09835 h 16.16994 a 8.3989114,8.3989114 0 0 0 0,-16.79782 z"
     id="path149"
     inkscape:connector-curvature="0"
     style="fill:#d6001c;fill-opacity:1;stroke-width:0.951179" />
</svg>
